<?xml version="1.0" encoding="UTF-8"?>
<svg xmlns="http://www.w3.org/2000/svg" id="Layer_1" data-name="Layer 1" viewBox="0 0 24 24" width="512" height="512"><path d="m6,2.5c0-1.381,1.119-2.5,2.5-2.5s2.5,1.119,2.5,2.5-1.119,2.5-2.5,2.5-2.5-1.119-2.5-2.5Zm18,6.452c0,2.159-1.594,3.865-3.617,4.034l-11.339,9.594c-1.082.916-2.458,1.42-3.875,1.42h-1.218c-2.179,0-3.951-1.773-3.951-3.952,0-2.159,1.594-3.865,3.617-4.034l1.383-1.17v-5.344c0-1.93,1.57-3.5,3.5-3.5,1.745,0,3.196,1.284,3.458,2.957l2.998-2.537c1.082-.916,2.458-1.42,3.875-1.42h1.218c2.179,0,3.951,1.773,3.951,3.952ZM7,13.152l3-2.538v-1.113c0-.827-.673-1.5-1.5-1.5s-1.5.673-1.5,1.5v3.652Zm15-4.104c0-1.173-.875-2.048-1.951-2.048h-1.218c-.944,0-1.862.336-2.584.947l-11.602,9.816c-.18.153-.409.237-.646.237-1.125,0-2,.875-2,1.952,0,1.173.875,2.048,1.951,2.048h1.218c.944,0,1.862-.336,2.584-.947l11.602-9.816c.18-.153.409-.237.646-.237,1.125,0,2-.875,2-1.952Z"/></svg>
