<?xml version="1.0" encoding="UTF-8"?>
<svg xmlns="http://www.w3.org/2000/svg" id="Layer_1" data-name="Layer 1" viewBox="0 0 24 24" width="512" height="512"><path d="m21,23c0,.553-.448,1-1,1h-1.246c-.889,0-1.679-.597-1.923-1.451l-1.378-4.824c-.122-.427-.518-.725-.962-.725h-4.491c-1.654,0-3-1.346-3-3v-6c0-.553.448-1,1-1s1,.447,1,1v2h6c.552,0,1,.447,1,1s-.448,1-1,1h-6v2c0,.552.449,1,1,1h4.491c1.332,0,2.519.895,2.885,2.175l1.378,4.825h1.246c.552,0,1,.447,1,1ZM8.5,5c1.379,0,2.5-1.121,2.5-2.5s-1.121-2.5-2.5-2.5-2.5,1.121-2.5,2.5,1.121,2.5,2.5,2.5Zm4.5,14h-3c-2.757,0-5-2.243-5-5v-6c0-.553-.448-1-1-1s-1,.447-1,1v6c0,3.859,3.14,7,7,7h3c.552,0,1-.447,1-1s-.448-1-1-1Z"/></svg>
