<?xml version="1.0" encoding="UTF-8"?>
<svg xmlns="http://www.w3.org/2000/svg" id="Layer_1" data-name="Layer 1" viewBox="0 0 24 24" width="512" height="512"><path d="m19,6H5c-2.757,0-5,2.243-5,5v8c0,2.757,2.243,5,5,5h14c2.757,0,5-2.243,5-5v-8c0-2.757-2.243-5-5-5Zm-10,16h-3v-2.5c0-.827.673-1.5,1.5-1.5s1.5.673,1.5,1.5v2.5Zm9,0h-3v-2.5c0-.827.673-1.5,1.5-1.5s1.5.673,1.5,1.5v2.5Zm4-3c0,1.304-.836,2.415-2,2.828v-2.328c0-1.93-1.57-3.5-3.5-3.5s-3.5,1.57-3.5,3.5v2.5h-2v-2.5c0-1.93-1.57-3.5-3.5-3.5s-3.5,1.57-3.5,3.5v2.328c-1.164-.413-2-1.524-2-2.828v-8c0-1.654,1.346-3,3-3h14c1.654,0,3,1.346,3,3v8Zm-12-6.5c0,1.381-1.119,2.5-2.5,2.5s-2.5-1.119-2.5-2.5,1.119-2.5,2.5-2.5,2.5,1.119,2.5,2.5Zm9,0c0,1.381-1.119,2.5-2.5,2.5s-2.5-1.119-2.5-2.5,1.119-2.5,2.5-2.5,2.5,1.119,2.5,2.5ZM4.502,2.677L6.952.227c.303-.302.793-.302,1.096,0l2.451,2.451c.488.488.142,1.323-.548,1.323h-4.901c-.69,0-1.036-.834-.548-1.323Zm9-1.355c-.488-.488-.142-1.322.548-1.322h4.901c.69,0,1.036.834.548,1.322l-2.451,2.451c-.303.303-.793.303-1.096,0l-2.451-2.451Z"/></svg>
