<?xml version="1.0" encoding="UTF-8"?>
<svg xmlns="http://www.w3.org/2000/svg" id="Layer_1" data-name="Layer 1" viewBox="0 0 24 24" width="512" height="512"><path d="m5.208,5.62l.792.396v1.984c0,3.309,2.691,6,6,6s6-2.691,6-6v-1.984s.793-.396.793-.396c.74-.37,1.207-1.126,1.207-1.954,0-.976-.648-1.834-1.587-2.101L13.698.225C12.583-.054,11.417-.054,10.302.225l-4.715,1.34c-.939.267-1.587,1.125-1.587,2.101,0,.827.467,1.584,1.207,1.954Zm10.792,2.38c0,2.206-1.794,4-4,4s-4-1.794-4-4v-.375c.978.208,2.296.391,4,.391s3.022-.183,4-.391v.375Zm-6.5-4.5c.284-.473.898-.627,1.372-.343l1.128.677,1.128-.677c.474-.284,1.088-.131,1.372.343.284.474.131,1.088-.343,1.372l-1.643.985c-.317.19-.712.19-1.029,0l-1.643-.985c-.474-.284-.627-.899-.343-1.372Zm11.492,19.376c.068.548-.32,1.048-.868,1.116-.042.005-.084.008-.125.008-.497,0-.928-.37-.991-.876-.385-3.079-2.439-5.302-5.3-5.935l-1.207,1.811,1.397,3.794c.277.554-.126,1.206-.746,1.206h-2.303c-.62,0-1.023-.652-.746-1.206l1.397-3.794-1.207-1.811c-2.861.633-4.916,2.856-5.301,5.935-.068.548-.562.935-1.116.868-.548-.068-.937-.568-.868-1.116.579-4.638,4.277-7.876,8.992-7.876s8.413,3.238,8.992,7.876Z"/></svg>
