<?xml version="1.0" encoding="UTF-8"?>
<svg xmlns="http://www.w3.org/2000/svg" id="Layer_1" data-name="Layer 1" viewBox="0 0 24 24" width="512" height="512"><path d="m16.5,2.5c0-1.381,1.119-2.5,2.5-2.5s2.5,1.119,2.5,2.5-1.119,2.5-2.5,2.5-2.5-1.119-2.5-2.5Zm6.854,17.481c-.357.41-.827.709-1.354.873v2.145c0,.553-.447,1-1,1s-1-.447-1-1v-2h-2v2c0,.553-.447,1-1,1s-1-.447-1-1v-2.145c-.526-.164-.996-.463-1.354-.873-.503-.577-.724-1.301-.622-2.036l1.348-8.796c.208-1.519,1.553-3.149,3.628-3.149s3.42,1.631,3.63,3.165l1.344,8.766s.002.01.002.015c.102.735-.119,1.459-.622,2.036Zm-7.199-1.314c.182.209.483.333.807.333h4.078c.323,0,.625-.124.807-.333.082-.095.175-.248.149-.443l-1.344-8.771c-.084-.612-.65-1.452-1.651-1.452s-1.567.84-1.649,1.437l-1.348,8.797c-.025.183.068.338.151.434ZM4,5c1.381,0,2.5-1.119,2.5-2.5S5.381,0,4,0,1.5,1.119,1.5,2.5s1.119,2.5,2.5,2.5Zm4,5v5c0,.886-.387,1.684-1,2.234v5.766c0,.553-.447,1-1,1s-1-.447-1-1v-5h-2v5c0,.553-.447,1-1,1s-1-.447-1-1v-5.766c-.613-.55-1-1.347-1-2.234v-5c0-2.206,1.794-4,4-4s4,1.794,4,4Zm-3,6c.552,0,1-.448,1-1v-5c0-1.103-.897-2-2-2s-2,.897-2,2v5c0,.552.448,1,1,1h2ZM11,0c-.553,0-1,.447-1,1v22c0,.553.447,1,1,1s1-.447,1-1V1c0-.553-.447-1-1-1Z"/></svg>
