<?xml version="1.0" encoding="UTF-8"?>
<svg xmlns="http://www.w3.org/2000/svg" id="Layer_1" data-name="Layer 1" viewBox="0 0 24 24" width="512" height="512"><path d="m15.707,13.707l-2.293,2.293,2.293,2.293c.391.391.391,1.023,0,1.414-.195.195-.451.293-.707.293s-.512-.098-.707-.293l-2.293-2.293-2.293,2.293c-.195.195-.451.293-.707.293s-.512-.098-.707-.293c-.391-.391-.391-1.023,0-1.414l2.293-2.293-2.293-2.293c-.391-.391-.391-1.023,0-1.414s1.023-.391,1.414,0l2.293,2.293,2.293-2.293c.391-.391,1.023-.391,1.414,0s.391,1.023,0,1.414Zm8.293-6.707v12c0,2.757-2.243,5-5,5H5c-2.757,0-5-2.243-5-5V7C0,4.243,2.243,2,5,2h1v-1c0-.553.448-1,1-1s1,.447,1,1v1h8v-1c0-.553.448-1,1-1s1,.447,1,1v1h1c2.757,0,5,2.243,5,5Zm-22,0v1h20v-1c0-1.654-1.346-3-3-3H5c-1.654,0-3,1.346-3,3Zm20,12v-9H2v9c0,1.654,1.346,3,3,3h14c1.654,0,3-1.346,3-3Z"/></svg>
