<?xml version="1.0" encoding="UTF-8"?>
<svg xmlns="http://www.w3.org/2000/svg" id="Layer_1" data-name="Layer 1" viewBox="0 0 24 24" width="512" height="512"><path d="m23,9c.552,0,1-.447,1-1v-1c0-2.757-2.243-5-5-5h-10c-2.757,0-5,2.243-5,5v8c0,2.757,2.243,5,5,5h10c2.757,0,5-2.243,5-5v-1c0-.553-.448-1-1-1-1.103,0-2-.897-2-2s.897-2,2-2Zm-1,5.873v.127c0,1.654-1.346,3-3,3h-10c-1.654,0-3-1.346-3-3V7c0-1.654,1.346-3,3-3h10c1.654,0,3,1.346,3,3v.127c-1.723.444-3,2.013-3,3.873s1.277,3.429,3,3.873Zm-3,8.127c0,.553-.448,1-1,1h-9c-2.404,0-4.664-.937-6.364-2.636C.936,19.664,0,17.403,0,15v-6c0-.553.448-1,1-1s1,.447,1,1v6c0,1.87.728,3.628,2.05,4.949,1.322,1.322,3.081,2.051,4.95,2.051h9c.552,0,1,.447,1,1Zm-2-12c0,.552-.448,1-1,1h-1.5l-1.911,2.421c-.195.357-.569.579-.975.579h-.138c-.382,0-.644-.384-.506-.74l.879-2.26h-1.501c-.442,0-.862-.195-1.147-.533l-1.096-1.3c-.297-.52.078-1.167.677-1.167.207,0,.405.082.551.228l1.11.772h1.423l-.891-2.258c-.141-.356.122-.742.505-.742h.117c.407,0,.781.222.975.579l1.929,2.421h1.5c.552,0,1,.448,1,1Z"/></svg>
