<?xml version="1.0" encoding="UTF-8"?>
<svg xmlns="http://www.w3.org/2000/svg" id="Layer_1" data-name="Layer 1" viewBox="0 0 24 24" width="512" height="512"><path d="m16.912,6.548c-.691-.52-1.563-.679-2.396-.439l-1.316.381c-.456.132-.863.367-1.2.674-.337-.307-.744-.542-1.2-.674l-1.316-.381c-.833-.239-1.704-.081-2.396.439-.691.52-1.088,1.313-1.088,2.179v5.509c0,1.332.895,2.518,2.174,2.883l2.348.674c.483.139.981.209,1.479.209s.994-.07,1.478-.209l2.348-.673c1.28-.366,2.175-1.552,2.175-2.884v-5.509c0-.865-.396-1.659-1.088-2.179Zm-5.912,9.301l-2.276-.653c-.426-.121-.724-.517-.724-.96v-5.509c0-.23.105-.442.29-.58.128-.096.279-.146.434-.146.067,0,1.52.41,1.52.41.445.129.757.543.757,1.006v6.432Zm5-1.613c0,.443-.298.839-.725.961l-2.275.652v-6.432c0-.463.312-.877.757-1.006l1.316-.381c.221-.064.453-.021.637.117.185.138.29.35.29.58v5.509ZM12,0C5.383,0,0,5.383,0,12s5.383,12,12,12,12-5.383,12-12S18.617,0,12,0Zm0,22c-5.514,0-10-4.486-10-10S6.486,2,12,2s10,4.486,10,10-4.486,10-10,10Z"/></svg>
