<?xml version="1.0" encoding="UTF-8"?>
<svg xmlns="http://www.w3.org/2000/svg" id="Layer_1" data-name="Layer 1" viewBox="0 0 24 24" width="512" height="512"><path d="m23,10c.553,0,1-.447,1-1v-1c0-2.757-2.243-5-5-5H5C2.243,3,0,5.243,0,8v8c0,2.757,2.243,5,5,5h14c2.757,0,5-2.243,5-5v-1c0-.553-.447-1-1-1-1.103,0-2-.897-2-2s.897-2,2-2Zm-1,5.873v.127c0,1.654-1.346,3-3,3H6c0-.553-.447-1-1-1-.496,0-.906.36-.986.833-1.171-.409-2.014-1.524-2.014-2.833v-8c0-1.309.843-2.424,2.014-2.833.079.473.49.833.986.833.553,0,1-.447,1-1h13c1.654,0,3,1.346,3,3v.127c-1.724.444-3,2.013-3,3.873s1.276,3.429,3,3.873Zm-5-3.873c0,.552-.448,1-1,1h-1.5l-1.911,2.421c-.195.357-.569.579-.975.579h-.32c-.382,0-.644-.384-.506-.74l.879-2.26h-1.32c-.442,0-.862-.195-1.147-.533l-1.096-1.3c-.297-.52.078-1.167.677-1.167.207,0,.405.082.551.228l1.11.772h1.241l-.891-2.258c-.141-.356.122-.742.505-.742h.298c.407,0,.781.222.975.579l1.929,2.421h1.5c.552,0,1,.448,1,1Zm-11-3v1c0,.553-.447,1-1,1s-1-.447-1-1v-1c0-.553.447-1,1-1s1,.447,1,1Zm0,5v1c0,.553-.447,1-1,1s-1-.447-1-1v-1c0-.553.447-1,1-1s1,.447,1,1Z"/></svg>
