<?xml version="1.0" encoding="UTF-8"?>
<svg xmlns="http://www.w3.org/2000/svg" id="Layer_1" data-name="Layer 1" viewBox="0 0 24 24" width="512" height="512"><path d="m19,2h-1v-1c0-.552-.447-1-1-1s-1,.448-1,1v1h-8v-1c0-.552-.447-1-1-1s-1,.448-1,1v1h-1C2.243,2,0,4.243,0,7v12c0,2.757,2.243,5,5,5h14c2.757,0,5-2.243,5-5V7c0-2.757-2.243-5-5-5Zm-14,2h14c1.654,0,3,1.346,3,3v1H2v-1c0-1.654,1.346-3,3-3Zm14,18H5c-1.654,0-3-1.346-3-3v-9h20v9c0,1.654-1.346,3-3,3Zm-3.293-7.52c.391.391.391,1.023,0,1.414-.195.195-.451.293-.707.293s-.512-.098-.707-.293l-1.293-1.293v4.398c0,.553-.447,1-1,1s-1-.447-1-1v-4.398l-1.293,1.293c-.391.391-1.023.391-1.414,0s-.391-1.023,0-1.414l1.613-1.613c1.154-1.154,3.033-1.154,4.188,0l1.613,1.613Z"/></svg>
