<?xml version="1.0" encoding="UTF-8"?>
<svg xmlns="http://www.w3.org/2000/svg" id="Layer_1" data-name="Layer 1" viewBox="0 0 24 24" width="512" height="512"><path d="m18,4.003V1c0-.553-.447-1-1-1s-1,.447-1,1v2.101c-.323-.066-.658-.101-1-.101h-6c-.342,0-.677.035-1,.101V1c0-.553-.447-1-1-1s-1,.447-1,1v3.003c-1.214.913-2,2.365-2,3.997v8c0,1.632.786,3.084,2,3.997v3.003c0,.553.447,1,1,1s1-.447,1-1v-2.101c.323.066.658.101,1,.101h6c.342,0,.677-.035,1-.101v2.101c0,.553.447,1,1,1s1-.447,1-1v-3.003c1.214-.913,2-2.365,2-3.997v-8c0-1.632-.786-3.084-2-3.997Zm0,11.997c0,1.654-1.346,3-3,3h-6c-1.654,0-3-1.346-3-3v-8c0-1.654,1.346-3,3-3h6c1.654,0,3,1.346,3,3v8Zm-3.293-2.707c.391.391.391,1.023,0,1.414-.195.195-.451.293-.707.293s-.512-.098-.707-.293l-2-2c-.188-.188-.293-.441-.293-.707v-4c0-.553.447-1,1-1s1,.447,1,1v3.586l1.707,1.707Z"/></svg>
