<?xml version="1.0" encoding="UTF-8"?>
<svg xmlns="http://www.w3.org/2000/svg" id="Layer_1" data-name="Layer 1" viewBox="0 0 24 24" width="512" height="512"><path d="m5,18c.553,0,1-.447,1-1v-3h12v3c0,.553.447,1,1,1s1-.447,1-1V5c0-1.654,1.346-3,3-3,.553,0,1-.447,1-1s-.447-1-1-1c-2.757,0-5,2.243-5,5v1H6v-1c0-1.654,1.346-3,3-3,.553,0,1-.447,1-1s-.447-1-1-1c-2.757,0-5,2.243-5,5v12c0,.553.447,1,1,1Zm13-10v4H6v-4h12Zm5.668,14.978c-.733.659-1.681,1.022-2.668,1.022-1.128,0-2.222-.472-3-1.226-.778.754-1.872,1.226-3,1.226s-2.222-.472-3-1.226c-.778.754-1.872,1.226-3,1.226s-2.222-.472-3-1.226c-.778.754-1.872,1.226-3,1.226-.987,0-1.935-.363-2.668-1.022-.411-.369-.445-1.002-.076-1.412.372-.411,1.003-.442,1.412-.076.366.329.84.511,1.332.511.884,0,1.784-.58,2.053-1.322.094-.275.4-.677.923-.677s.881.416.97.677c.27.742,1.169,1.322,2.053,1.322s1.784-.58,2.053-1.322c.084-.246.397-.677.897-.677.531,0,.903.401.997.677.27.742,1.169,1.322,2.053,1.322s1.784-.58,2.053-1.322c.094-.275.414-.678.947-.678s.843.42.946.678c.292.733,1.169,1.322,2.053,1.322.492,0,.966-.182,1.332-.511.409-.367,1.04-.337,1.412.076.369.41.335,1.043-.076,1.412Z"/></svg>
