<?xml version="1.0" encoding="UTF-8"?>
<svg xmlns="http://www.w3.org/2000/svg" id="Layer_1" data-name="Layer 1" viewBox="0 0 24 24" width="512" height="512"><path d="m13,2.468C13,1.087,14.119-.032,15.5-.032s2.5,1.119,2.5,2.5-1.119,2.5-2.5,2.5-2.5-1.119-2.5-2.5Zm8.748,5.868c-.366-.414-1-.451-1.411-.084l-3.062,2.714-1.918-2.685c-.486-.937-1.295-1.652-2.223-1.992-.672-.306-1.39-.369-2.074-.184-.873.235-1.601.835-2.019,1.69l-2.649,6.169c-.734,1.497-.401,2.787,1.057,3.974l5.51,4.062h-7.976c-.552,0-1,.448-1,1s.448,1,1,1h9.525c.645,0,1.214-.412,1.415-1.024.202-.613-.011-1.282-.53-1.666l-6.719-4.952c-.835-.681-.729-1.019-.465-1.559l2.649-6.169c.144-.292.407-.509.724-.595.238-.065.47-.042.792.102.405.15.752.409,1.007.747l-2.404,5.729c-.214.509.026,1.095.535,1.309.126.053.257.079.386.079.391,0,.762-.23.922-.614l1.907-4.546.955,1.337c.612.863,1.781,1.083,2.66.5.04-.026,3.319-2.93,3.319-2.93.413-.366.451-.998.085-1.412Z"/></svg>
