<?xml version="1.0" encoding="UTF-8"?>
<svg xmlns="http://www.w3.org/2000/svg" id="Layer_1" data-name="Layer 1" viewBox="0 0 24 24" width="512" height="512"><path d="m17,0H7C4.243,0,2,2.243,2,5v14c0,2.757,2.243,5,5,5h11c2.206,0,4-1.794,4-4V5c0-2.757-2.243-5-5-5ZM7,2h10c1.654,0,3,1.346,3,3v11.556c-.591-.345-1.268-.556-2-.556H4V5c0-1.654,1.346-3,3-3Zm11,20H7c-1.654,0-3-1.346-3-3v-1h14c1.103,0,2,.897,2,2s-.897,2-2,2Z"/><path d="m6.079,12.255c.089.157.255.255.436.255h3.378l1.68,2.755c.091.149.252.24.427.24s.336-.091.427-.24l1.68-2.755h3.378c.181,0,.347-.098.436-.255.088-.158.085-.351-.009-.505l-1.67-2.742,1.669-2.738c.094-.154.098-.348.009-.505-.088-.158-.255-.255-.436-.255h-3.373l-1.684-2.766c-.182-.298-.673-.298-.854,0l-1.684,2.766h-3.373c-.181,0-.348.098-.436.255-.088.157-.085.351.009.505l1.669,2.738-1.67,2.742c-.094.154-.097.348-.009.505Zm5.921,1.789l-.936-1.534h1.871l-.936,1.534Zm-1.545-2.534l-1.526-2.502,1.521-2.498h3.099l1.521,2.498-1.526,2.502h-3.091Zm6.14,0h-1.878l.94-1.541.939,1.541Zm0-5l-.937,1.537-.936-1.537h1.873Zm-4.594-2.544l.94,1.544h-1.881l.94-1.544Zm-4.594,2.544h1.873l-.936,1.537-.937-1.537Zm.938,3.459l.94,1.541h-1.878l.939-1.541Z"/></svg>
