<?xml version="1.0" encoding="UTF-8"?>
<svg xmlns="http://www.w3.org/2000/svg" id="Layer_1" data-name="Layer 1" viewBox="0 0 24 24" width="512" height="512"><path d="m19,6h-2c-1.103,0-2,.897-2,2v4h-1.032L4.268.36c-.19-.228-.471-.36-.768-.36h-.5c-.552,0-1,.448-1,1v5.5c0,.276-.224.5-.5.5h-.5c-.552,0-1,.448-1,1s.448,1,1,1h.5c1.378,0,2.5-1.122,2.5-2.5v-3.338l7.365,8.838H3c-1.654,0-3,1.346-3,3v2c0,1.654,1.346,3,3,3h.037c-.024.165-.037.331-.037.5,0,1.93,1.57,3.5,3.5,3.5s3.5-1.57,3.5-3.5c0-.169-.013-.335-.037-.5h4.074c-.024.165-.037.331-.037.5,0,1.93,1.57,3.5,3.5,3.5s3.5-1.57,3.5-3.5c0-.207-.019-.412-.055-.613,1.751-.426,3.055-2.007,3.055-3.887v-5c0-2.757-2.243-5-5-5Zm0,2c1.654,0,3,1.346,3,3v1h-5v-4h2ZM2,17v-2c0-.551.449-1,1-1h12v4h-6.507c-.005,0-.01,0-.016,0h-3.948c-.01,0-.021,0-.031,0h-1.498c-.551,0-1-.449-1-1Zm6,3.5c0,.827-.673,1.5-1.5,1.5s-1.5-.673-1.5-1.5c0-.189.037-.356.091-.5h2.819c.054.144.091.311.091.5Zm9.5,1.5c-.827,0-1.5-.673-1.5-1.5,0-.189.037-.356.091-.5h2.819c.054.144.091.311.091.5,0,.827-.673,1.5-1.5,1.5Zm2.5-4h-.507c-.005,0-.01,0-.016,0h-2.477v-4h5v2c0,1.103-.897,2-2,2Z"/></svg>
