<?xml version="1.0" encoding="UTF-8"?>
<svg xmlns="http://www.w3.org/2000/svg" id="Layer_1" data-name="Layer 1" viewBox="0 0 24 24" width="512" height="512"><path d="m19,2h-1v-1c0-.552-.447-1-1-1s-1,.448-1,1v1h-8v-1c0-.552-.447-1-1-1s-1,.448-1,1v1h-1C2.243,2,0,4.243,0,7v12c0,2.757,2.243,5,5,5h14c2.757,0,5-2.243,5-5V7c0-2.757-2.243-5-5-5Zm-14,2h14c1.654,0,3,1.346,3,3v1H2v-1c0-1.654,1.346-3,3-3Zm14,18H5c-1.654,0-3-1.346-3-3v-9h20v9c0,1.654-1.346,3-3,3Zm-3.293-5.895c.391.391.391,1.023,0,1.414l-1.613,1.613c-.577.577-1.336.866-2.094.866s-1.517-.289-2.094-.866l-1.613-1.613c-.391-.391-.391-1.023,0-1.414s1.023-.391,1.414,0l1.293,1.293v-4.398c0-.552.447-1,1-1s1,.448,1,1v4.398l1.293-1.293c.391-.391,1.023-.391,1.414,0Z"/></svg>
