<?xml version="1.0" encoding="UTF-8"?>
<svg xmlns="http://www.w3.org/2000/svg" id="Layer_1" data-name="Layer 1" viewBox="0 0 24 24" width="512" height="512"><path d="m10,17.188c0,.448-.364.812-.812.812h-1.376c-.448,0-.812-.364-.812-.812v-.229c0-.502.451-.884.946-.801l1.376.229c.392.065.679.404.679.801Zm3.446-4.046c-.355-.355-.943-.306-1.235.102l-.811,1.135c-.231.323-.194.766.087,1.046.317.317.831.317,1.148,0l.973-.973c.317-.317.317-.831,0-1.148l-.162-.162Zm2.713-4.623l.529-1.27c.172-.414-.023-.889-.437-1.062-.366-.153-.789-.018-1,.318l-.741,1.182c-.267.425-.087.988.376,1.181l.212.088c.414.172.889-.023,1.062-.437Zm7.841,3.48c0,6.617-5.383,12-12,12S0,18.617,0,12,5.383,0,12,0s12,5.383,12,12Zm-12,10c2.59,0,4.952-.989,6.73-2.61l-2.036-.291c-.435-.062-.812-.334-1.008-.727l-.387-.774c-.188-.377-.188-.821,0-1.198l.408-.815c.185-.37.53-.633.935-.714l1.605-.321c.165-.033.316-.114.434-.232l.849-.849c.276-.276.704-.328,1.038-.128l1.215.729c.141-.668.216-1.361.216-2.07,0-4.39-2.844-8.129-6.786-9.47-.412.85-.794,1.624-1.015,2.071-.126.255-.357.439-.633.508l-1.102.275c-.289.072-.521.287-.616.57l-.204.613c-.091.271-.042.57.13.799l.7.933c.312.416.312.987,0,1.403l-.623.831c-.221.294-.567.468-.935.468h-.679c-.386,0-.679.346-.616.727l.283,1.697c.057.343-.116.683-.427.838l-.905.452c-.334.167-.739.078-.972-.214l-1.186-1.483c-.231-.288-.648-.341-.944-.12l-1.155.866c-.205.154-.454.237-.71.237h-1.405c.929,4.559,4.97,8,9.799,8Z"/></svg>
