<?xml version="1.0" encoding="UTF-8"?>
<svg xmlns="http://www.w3.org/2000/svg" id="Layer_1" data-name="Layer 1" viewBox="0 0 24 24" width="512" height="512"><path d="m21,0c-1.302,0-2.402.839-2.816,2H5.816c-.414-1.161-1.514-2-2.816-2C1.346,0,0,1.346,0,3v18c0,1.654,1.346,3,3,3,1.302,0,2.402-.839,2.816-2h12.369c.414,1.161,1.514,2,2.816,2,1.654,0,3-1.346,3-3V3c0-1.654-1.346-3-3-3ZM3,22c-.552,0-1-.449-1-1V3c0-.551.448-1,1-1s1,.449,1,1v18c0,.551-.448,1-1,1ZM6,4h12v16H6V4Zm16,17c0,.551-.448,1-1,1s-1-.449-1-1V3c0-.551.448-1,1-1s1,.449,1,1v18Z"/><path d="m17.92,8.761c-.088-.158-.255-.255-.436-.255h-3.373l-1.684-2.766c-.182-.298-.672-.298-.854,0l-1.684,2.766h-3.373c-.181,0-.348.098-.436.255-.089.157-.086.351.009.505l1.67,2.738-1.67,2.741c-.095.154-.098.348-.009.505.088.157.255.255.436.255h3.378l1.68,2.755c.091.149.252.24.427.24s.336-.091.427-.24l1.68-2.755h3.378c.181,0,.348-.098.436-.255.089-.158.086-.351-.009-.505l-1.67-2.741,1.67-2.738c.095-.154.098-.348.009-.505Zm-5.92-1.799l.94,1.544h-1.881l.94-1.544Zm1.549,2.544l1.521,2.498-1.526,2.502h-3.09l-1.526-2.502,1.521-2.498h3.099Zm-6.143,0h1.874l-.936,1.537-.937-1.537Zm0,5l.939-1.541.94,1.541h-1.878Zm4.595,2.534l-.935-1.534h1.871l-.935,1.534Zm4.595-2.534h-1.878l.94-1.541.939,1.541Zm-.938-3.463l-.936-1.537h1.874l-.937,1.537Z"/></svg>
