<?xml version="1.0" encoding="UTF-8"?>
<svg xmlns="http://www.w3.org/2000/svg" id="Layer_1" data-name="Layer 1" viewBox="0 0 24 24" width="512" height="512"><path d="m9,22h-5c-1.103,0-2-.897-2-2s.897-2,2-2h3c.552,0,1-.447,1-1s-.448-1-1-1h-1V2h9c1.654,0,3,1.346,3,3v2c0,.552.448,1,1,1s1-.448,1-1v-2c0-2.757-2.243-5-5-5H5C2.243,0,0,2.243,0,5v15c0,2.206,1.794,4,4,4h5c.552,0,1-.447,1-1s-.448-1-1-1ZM4,2.172v13.828c-.728,0-1.411.196-2,.537V5c0-1.304.836-2.415,2-2.828Zm13,7.828c-3.86,0-7,3.141-7,7s3.14,7,7,7,7-3.141,7-7-3.14-7-7-7Zm0,12c-2.757,0-5-2.243-5-5s2.243-5,5-5,5,2.243,5,5-2.243,5-5,5Zm2.742-6.499c.168.168.257.393.257.621,0,.113-.021.227-.067.336-.136.328-.456.541-.812.541h-1.121v2c0,.553-.448,1-1,1s-1-.447-1-1v-2h-1.121c-.355,0-.676-.213-.812-.541-.138-.329-.062-.706.19-.958l1.5-1.5c.685-.685,1.8-.685,2.485,0l1.5,1.5Z"/></svg>
